o upper_part
usemtl upper part
v -0.0000035219639539718626 -0.13364678649902353 -0.06000000000000004
v 0.23014213256835936 0.002390972471237184 -0.06000000000000004
v 0.23014213256835936 0.002390972471237184 -5.999999894710024e-17
v -0.0000035219639539718626 -0.13364678649902353 -0.06000000000000004
v 0.23014213256835936 0.002390972471237184 -5.999999894710024e-17
v -0.0000035219639539718626 -0.13364678649902353 0
v 0.23014213256835936 0.002390972471237184 -0.06000000000000004
v 7.803615590091795e-8 0.38426330566406275 -0.06000000000000004
v 7.803615590091795e-8 0.38426330566406275 0
v 0.23014213256835936 0.002390972471237184 -0.06000000000000004
v 7.803615590091795e-8 0.38426330566406275 0
v 0.23014213256835936 0.002390972471237184 -5.999999894710024e-17
v 7.803615590091795e-8 0.38426330566406275 -0.06000000000000004
v -0.23014740600585937 0.0023927724838256853 -0.06000000000000004
v -0.23014740600585937 0.0023927724838256853 5.999999894710024e-17
v 7.803615590091795e-8 0.38426330566406275 -0.06000000000000004
v -0.23014740600585937 0.0023927724838256853 5.999999894710024e-17
v 7.803615590091795e-8 0.38426330566406275 0
v -0.23014740600585937 0.0023927724838256853 -0.06000000000000004
v -0.0000035219639539718626 -0.13364678649902353 -0.06000000000000004
v -0.0000035219639539718626 -0.13364678649902353 0
v -0.23014740600585937 0.0023927724838256853 -0.06000000000000004
v -0.0000035219639539718626 -0.13364678649902353 0
v -0.23014740600585937 0.0023927724838256853 5.999999894710024e-17
v -0.0000035219639539718626 -0.13364678649902353 0
v 7.803615590091795e-8 0.10700070190429695 0.058260946655273475
v -0.23014740600585937 0.0023927724838256853 5.999999894710024e-17
v 0.23014213256835936 0.002390972471237184 -5.999999894710024e-17
v 7.803615590091795e-8 0.10700070190429695 0.058260946655273475
v -0.0000035219639539718626 -0.13364678649902353 0
v 7.803615590091795e-8 0.38426330566406275 0
v -0.23014740600585937 0.0023927724838256853 5.999999894710024e-17
v 7.803615590091795e-8 0.10700070190429695 0.058260946655273475
v 7.803615590091795e-8 0.10700070190429695 0.058260946655273475
v 0.23014213256835936 0.002390972471237184 -5.999999894710024e-17
v 7.803615590091795e-8 0.38426330566406275 0
v -0.0000035219639539718626 -0.13364678649902353 -0.06000000000000004
v -0.0000035219639539718626 0.10700070190429695 -0.11826094665527351
v 0.23014213256835936 0.002390972471237184 -0.06000000000000004
v -0.0000035219639539718626 -0.13364678649902353 -0.06000000000000004
v -0.23014740600585937 0.0023927724838256853 -0.06000000000000004
v -0.0000035219639539718626 0.10700070190429695 -0.11826094665527351
v -0.23014740600585937 0.0023927724838256853 -0.06000000000000004
v 7.803615590091795e-8 0.38426330566406275 -0.06000000000000004
v -0.0000035219639539718626 0.10700070190429695 -0.11826094665527351
v 7.803615590091795e-8 0.38426330566406275 -0.06000000000000004
v 0.23014213256835936 0.002390972471237184 -0.06000000000000004
v -0.0000035219639539718626 0.10700070190429695 -0.11826094665527351
vt 0.24999907612800598 0.3684154748916626
vt 0.49219396710395813 0.3684154748916626
vt 0.49219396710395813 0.43155670166015625
vt 0.24999907612800598 0.3684154748916626
vt 0.49219396710395813 0.43155670166015625
vt 0.24999907612800598 0.43155670166015625
vt 0.5709472894668579 0.029691576957702637
vt 0.5709472894668579 0.43155670166015625
vt 0.5078060030937195 0.43155670166015625
vt 0.5709472894668579 0.029691576957702637
vt 0.5078060030937195 0.43155670166015625
vt 0.5078060030937195 0.029691576957702637
vt 0.5865593552589417 0.43155479431152344
vt 0.5865593552589417 0.029691576957702637
vt 0.6497006416320801 0.029691576957702637
vt 0.5865593552589417 0.43155479431152344
vt 0.6497006416320801 0.029691576957702637
vt 0.6497006416320801 0.43155479431152344
vt 0.007806027308106422 0.3684154748916626
vt 0.24999907612800598 0.3684154748916626
vt 0.24999907612800598 0.43155670166015625
vt 0.007806027308106422 0.3684154748916626
vt 0.24999907612800598 0.43155670166015625
vt 0.007806027308106422 0.43155670166015625
vt 0.24999907612800598 0.44716882705688477
vt 0.2500028610229492 0.700415313243866
vt 0.007806027308106422 0.5903306603431702
vt 0.49219396710395813 0.5903287529945374
vt 0.2500028610229492 0.700415313243866
vt 0.24999907612800598 0.44716882705688477
vt 0.2500028610229492 0.9921939969062805
vt 0.007806027308106422 0.5903306603431702
vt 0.2500028610229492 0.700415313243866
vt 0.2500028610229492 0.700415313243866
vt 0.49219396710395813 0.5903287529945374
vt 0.2500028610229492 0.9921939969062805
vt 0.7500009536743164 0.44716882705688477
vt 0.7500009536743164 0.700415313243866
vt 0.5078060030937195 0.5903287529945374
vt 0.7500009536743164 0.44716882705688477
vt 0.9921939969062805 0.5903306603431702
vt 0.7500009536743164 0.700415313243866
vt 0.9921939969062805 0.5903306603431702
vt 0.7499971389770508 0.9921939969062805
vt 0.7500009536743164 0.700415313243866
vt 0.7499971389770508 0.9921939969062805
vt 0.5078060030937195 0.5903287529945374
vt 0.7500009536743164 0.700415313243866
vn 1696.158051490784 -2869.52237288157 0
vn 1696.158051490784 -2869.52237288157 0
vn 1696.158051490784 -2869.52237288157 0
vn 1696.158051490784 -2869.52237288157 0
vn 1696.158051490784 -2869.52237288157 0
vn 1696.158051490784 -2869.52237288157 0
vn 2854.944467544556 1720.582445462544 0
vn 2854.944467544556 1720.582445462544 0
vn 2854.944467544556 1720.582445462544 0
vn 2854.944467544556 1720.582445462544 0
vn 2854.944467544556 1720.582445462544 0
vn 2854.944467544556 1720.582445462544 0
vn -2854.9228111902876 1720.6180095672598 0
vn -2854.9228111902876 1720.6180095672598 0
vn -2854.9228111902876 1720.6180095672598 0
vn -2854.9228111902876 1720.6180095672598 0
vn -2854.9228111902876 1720.6180095672598 0
vn -2854.9228111902876 1720.6180095672598 0
vn -1696.184277534485 -2869.5068756739283 0
vn -1696.184277534485 -2869.5068756739283 0
vn -1696.184277534485 -2869.5068756739283 0
vn -1696.184277534485 -2869.5068756739283 0
vn -1696.184277534485 -2869.5068756739283 0
vn -1696.184277534485 -2869.5068756739283 0
vn -459.20625329017645 -776.85867746671 3208.852012952167
vn -459.20625329017645 -776.85867746671 3208.852012952167
vn -459.20625329017645 -776.85867746671 3208.852012952167
vn 459.2044154802959 -776.8717408180233 3208.8490327199283
vn 459.2044154802959 -776.8717408180233 3208.8490327199283
vn 459.2044154802959 -776.8717408180233 3208.8490327199283
vn -1076.4124989509585 648.7373014291124 3087.326884269713
vn -1076.4124989509585 648.7373014291124 3087.326884269713
vn -1076.4124989509585 648.7373014291124 3087.326884269713
vn 1076.4398177464805 648.7353146076199 3087.3177448908473
vn 1076.4398177464805 648.7353146076199 3087.3177448908473
vn 1076.4398177464805 648.7353146076199 3087.3177448908473
vn 459.20064051946014 -776.8653829892472 -3208.85121822357
vn 459.20064051946014 -776.8653829892472 -3208.85121822357
vn 459.20064051946014 -776.8653829892472 -3208.85121822357
vn -459.21002825101226 -776.8650849660233 -3208.8500261306745
vn -459.21002825101226 -776.8650849660233 -3208.8500261306745
vn -459.21002825101226 -776.8650849660233 -3208.8500261306745
vn -1076.4323671658835 648.7492720286048 -3087.317347526549
vn -1076.4323671658835 648.7492720286048 -3087.317347526549
vn -1076.4323671658835 648.7492720286048 -3087.317347526549
vn 1076.42004887263 648.7233936786648 -3087.327082951862
vn 1076.42004887263 648.7233936786648 -3087.327082951862
vn 1076.42004887263 648.7233936786648 -3087.327082951862
f 1/1/1 2/2/2 3/3/3
f 4/4/4 5/5/5 6/6/6
f 7/7/7 8/8/8 9/9/9
f 10/10/10 11/11/11 12/12/12
f 13/13/13 14/14/14 15/15/15
f 16/16/16 17/17/17 18/18/18
f 19/19/19 20/20/20 21/21/21
f 22/22/22 23/23/23 24/24/24
f 25/25/25 26/26/26 27/27/27
f 28/28/28 29/29/29 30/30/30
f 31/31/31 32/32/32 33/33/33
f 34/34/34 35/35/35 36/36/36
f 37/37/37 38/38/38 39/39/39
f 40/40/40 41/41/41 42/42/42
f 43/43/43 44/44/44 45/45/45
f 46/46/46 47/47/47 48/48/48
o lower_part
usemtl lower part
v -0.23014740600585937 -0.041249308776855495 -0.06000000000000004
v 1.7999999277554245e-16 -0.36556600341796897 -0.060000338745117225
v 1.9500000572603147e-16 -0.36556600341796897 -3.381658229045572e-7
v -0.23014740600585937 -0.041249308776855495 -0.06000000000000004
v 1.9500000572603147e-16 -0.36556600341796897 -3.381658229045572e-7
v -0.23014740600585937 -0.041249308776855495 -1.0698845926526708e-9
v 1.7999999277554245e-16 -0.36556600341796897 -0.060000338745117225
v 0.23028424072265624 -0.04125290679931643 -0.06000000000000004
v 0.23028424072265624 -0.04125290679931643 -5.999999894710024e-17
v 1.7999999277554245e-16 -0.36556600341796897 -0.060000338745117225
v 0.23028424072265624 -0.04125290679931643 -5.999999894710024e-17
v 1.9500000572603147e-16 -0.36556600341796897 -3.381658229045572e-7
v 0.23028424072265624 -0.04125290679931643 -0.06000000000000004
v 7.803615590091795e-8 -0.1828831054687501 -0.11826094665527351
v 7.803615590091795e-8 -0.1828831054687501 0.058260946655273475
v 0.23028424072265624 -0.04125290679931643 -0.06000000000000004
v 7.803615590091795e-8 -0.1828831054687501 0.058260946655273475
v 0.23028424072265624 -0.04125290679931643 -5.999999894710024e-17
v 7.803615590091795e-8 -0.1828831054687501 -0.11826094665527351
v -0.23014740600585937 -0.041249308776855495 -0.06000000000000004
v -0.23014740600585937 -0.041249308776855495 -1.0698845926526708e-9
v 7.803615590091795e-8 -0.1828831054687501 -0.11826094665527351
v -0.23014740600585937 -0.041249308776855495 -1.0698845926526708e-9
v 7.803615590091795e-8 -0.1828831054687501 0.058260946655273475
v 1.9500000572603147e-16 -0.36556600341796897 -3.381658229045572e-7
v 0.23028424072265624 -0.04125290679931643 -5.999999894710024e-17
v 7.803615590091795e-8 -0.1828831054687501 0.058260946655273475
v -0.23014740600585937 -0.041249308776855495 -1.0698845926526708e-9
v 1.9500000572603147e-16 -0.36556600341796897 -3.381658229045572e-7
v 7.803615590091795e-8 -0.1828831054687501 0.058260946655273475
v 7.803615590091795e-8 -0.1828831054687501 -0.11826094665527351
v 1.7999999277554245e-16 -0.36556600341796897 -0.060000338745117225
v -0.23014740600585937 -0.041249308776855495 -0.06000000000000004
v 7.803615590091795e-8 -0.1828831054687501 -0.11826094665527351
v 0.23028424072265624 -0.04125290679931643 -0.06000000000000004
v 1.7999999277554245e-16 -0.36556600341796897 -0.060000338745117225
vt 0.12088926881551743 0.6339784264564514
vt 0.1208886206150055 0.008532881736755371
vt 0.23659875988960266 0.008532881736755371
vt 0.12088926881551743 0.6339784264564514
vt 0.23659875988960266 0.008532881736755371
vt 0.236599400639534 0.6339784264564514
vt 0.5940887331962585 0.008532881736755371
vt 0.594088077545166 0.6339714527130127
vt 0.47837796807289124 0.6339714527130127
vt 0.5940887331962585 0.008532881736755371
vt 0.47837796807289124 0.6339714527130127
vt 0.47837862372398376 0.008532881736755371
vt 0.8964763879776001 0.8791106939315796
vt 0.45237287878990173 0.9914671182632446
vt 0.45237287878990173 0.6510442495346069
vt 0.8964763879776001 0.8791106939315796
vt 0.45237287878990173 0.6510442495346069
vt 0.8964763879776001 0.7634005546569824
vt 0.45237287878990173 0.9914671182632446
vt 0.008532911539077759 0.8791107535362244
vt 0.008532911539077759 0.7634006142616272
vt 0.45237287878990173 0.9914671182632446
vt 0.008532911539077759 0.7634006142616272
vt 0.45237287878990173 0.6510442495346069
vt 0.47837862372398376 0.008532881736755371
vt 0.47837796807289124 0.6339714527130127
vt 0.36602160334587097 0.36083734035491943
vt 0.236599400639534 0.6339784264564514
vt 0.23659875988960266 0.008532881736755371
vt 0.34895578026771545 0.36083734035491943
vt 0.008532911539077759 0.36083734035491943
vt 0.1208886206150055 0.008532881736755371
vt 0.12088926881551743 0.6339784264564514
vt 0.7064444422721863 0.36083734035491943
vt 0.594088077545166 0.6339714527130127
vt 0.5940887331962585 0.008532881736755371
vn -2718.4077103932705 -1929.0854533513377 0
vn -2718.4077103932705 -1929.0854533513377 0
vn -2718.4077103932705 -1929.0854533513377 0
vn -2718.4077103932705 -1929.0854533513377 0
vn -2718.4077103932705 -1929.0854533513377 0
vn -2718.4077103932705 -1929.0854533513377 0
vn 2717.856566111247 -1929.8619031906119 0
vn 2717.856566111247 -1929.8619031906119 0
vn 2717.856566111247 -1929.8619031906119 0
vn 2717.856566111247 -1929.8619031906119 0
vn 2717.856566111247 -1929.8619031906119 0
vn 2717.856566111247 -1929.8619031906119 0
vn -1746.2478081385298 2839.318513870238 0
vn -1746.2478081385298 2839.318513870238 0
vn -1746.2478081385298 2839.318513870238 0
vn -1746.2478081385298 2839.318513870238 0
vn -1746.2478081385298 2839.318513870238 0
vn -1746.2478081385298 2839.318513870238 0
vn 1747.032403945923 2838.8359149297066 0
vn 1747.032403945923 2838.8359149297066 0
vn 1747.032403945923 2838.8359149297066 0
vn 1747.032403945923 2838.8359149297066 0
vn 1747.032403945923 2838.8359149297066 0
vn 1747.032403945923 2838.8359149297066 0
vn 1311.3392392794294 -931.142667929331 2919.670144716897
vn 1311.3392392794294 -931.142667929331 2919.670144716897
vn 1311.3392392794294 -931.142667929331 2919.670144716897
vn -1312.0092948277793 -931.0545523961381 2919.397155443826
vn -1312.0092948277793 -931.0545523961381 2919.397155443826
vn -1312.0092948277793 -931.0545523961381 2919.397155443826
vn -1312.0048244794211 -931.0453136761979 -2919.4021224975572
vn -1312.0048244794211 -931.0453136761979 -2919.4021224975572
vn -1312.0048244794211 -931.0453136761979 -2919.4021224975572
vn 1311.3348682721457 -931.1334292093908 -2919.6751117706285
vn 1311.3348682721457 -931.1334292093908 -2919.6751117706285
vn 1311.3348682721457 -931.1334292093908 -2919.6751117706285
f 49/49/49 50/50/50 51/51/51
f 52/52/52 53/53/53 54/54/54
f 55/55/55 56/56/56 57/57/57
f 58/58/58 59/59/59 60/60/60
f 61/61/61 62/62/62 63/63/63
f 64/64/64 65/65/65 66/66/66
f 67/67/67 68/68/68 69/69/69
f 70/70/70 71/71/71 72/72/72
f 73/73/73 74/74/74 75/75/75
f 76/76/76 77/77/77 78/78/78
f 79/79/79 80/80/80 81/81/81
f 82/82/82 83/83/83 84/84/84
